<svg id="visual" viewBox="0 0 900 600" width="900" height="600" xmlns="http://www.w3.org/2000/svg" xmlns:xlink="http://www.w3.org/1999/xlink" version="1.1"><rect x="0" y="0" width="900" height="600" fill="#002233"></rect><path d="M0 475L6.8 454.8C13.7 434.7 27.3 394.3 41 382.3C54.7 370.3 68.3 386.7 82 376C95.7 365.3 109.3 327.7 123 324.2C136.7 320.7 150.3 351.3 164 358.7C177.7 366 191.3 350 204.8 329.2C218.3 308.3 231.7 282.7 245.2 302.7C258.7 322.7 272.3 388.3 286 399.8C299.7 411.3 313.3 368.7 327 342.2C340.7 315.7 354.3 305.3 368 330C381.7 354.7 395.3 414.3 409 438C422.7 461.7 436.3 449.3 450 430.2C463.7 411 477.3 385 491 369.3C504.7 353.7 518.3 348.3 532 366.7C545.7 385 559.3 427 573 428.8C586.7 430.7 600.3 392.3 614 355.7C627.7 319 641.3 284 654.8 303.5C668.3 323 681.7 397 695.2 397.8C708.7 398.7 722.3 326.3 736 307.2C749.7 288 763.3 322 777 324.5C790.7 327 804.3 298 818 313.2C831.7 328.3 845.3 387.7 859 398.3C872.7 409 886.3 371 893.2 352L900 333L900 601L893.2 601C886.3 601 872.7 601 859 601C845.3 601 831.7 601 818 601C804.3 601 790.7 601 777 601C763.3 601 749.7 601 736 601C722.3 601 708.7 601 695.2 601C681.7 601 668.3 601 654.8 601C641.3 601 627.7 601 614 601C600.3 601 586.7 601 573 601C559.3 601 545.7 601 532 601C518.3 601 504.7 601 491 601C477.3 601 463.7 601 450 601C436.3 601 422.7 601 409 601C395.3 601 381.7 601 368 601C354.3 601 340.7 601 327 601C313.3 601 299.7 601 286 601C272.3 601 258.7 601 245.2 601C231.7 601 218.3 601 204.8 601C191.3 601 177.7 601 164 601C150.3 601 136.7 601 123 601C109.3 601 95.7 601 82 601C68.3 601 54.7 601 41 601C27.3 601 13.7 601 6.8 601L0 601Z" fill="#00dd72" stroke-linecap="round" stroke-linejoin="miter"></path></svg>